<svg width="50" height="56" viewBox="0 0 50 56" fill="none" xmlns="http://www.w3.org/2000/svg">
<path fill-rule="evenodd" clip-rule="evenodd" d="M29.1173 1.13483C26.4966 -0.378277 23.2676 -0.378277 20.6468 1.13483L4.23525 10.7402C1.61447 12.2533 0.0859375 15.0497 0.0859375 18.0759V21.1742C0.135695 19.2937 0.610039 17.6882 1.50897 16.3576C2.48776 14.9197 3.80642 13.834 5.46493 13.1004C7.15062 12.3668 9.04024 12 11.1338 12C14.6683 12 17.4687 12.8803 19.5351 14.641C21.6286 16.4016 22.7297 18.8812 22.8385 22.0798H13.0914C13.0642 21.1994 12.8602 20.5685 12.4796 20.187C12.099 19.8056 11.6368 19.6148 11.093 19.6148C10.7123 19.6148 10.3997 19.7615 10.155 20.055C9.91028 20.3191 9.78793 20.7006 9.78793 21.1994C9.78793 21.9037 10.1414 22.4906 10.8483 22.9601C11.5824 23.4002 12.7379 23.9431 14.3148 24.5887C16.1365 25.3223 17.6319 26.0266 18.801 26.7015C19.9973 27.3764 21.0305 28.3154 21.9005 29.5185C22.7705 30.7217 23.2055 32.2329 23.2055 34.0522C23.2055 35.9596 22.7705 37.6763 21.9005 39.2022C21.0305 40.6987 19.7662 41.8725 18.1077 42.7235C16.4492 43.5745 14.478 44 12.1941 44C8.74116 44 5.88635 43.1343 3.62969 41.403C1.61986 39.8158 0.438612 37.5728 0.0859375 34.674V37.4123C0.0859375 40.4386 1.61447 43.2349 4.23525 44.748L20.6468 54.4791C23.2676 55.9922 26.4966 55.9922 29.1173 54.4791L45.7647 44.8357C48.3855 43.3226 50 40.5262 50 37.5L50 23.2242L50 18.1636C50 15.1373 48.3855 12.341 45.7647 10.8279L29.1173 1.13483ZM50 23.2242C50 19.967 49.0484 17.37 47.1452 15.4333C45.2692 13.4965 42.5639 12.5282 39.0294 12.5282H26.3866V43.6919H35.4405V33.7881H39.0294C41.3676 33.7881 43.3524 33.3186 44.9837 32.3796C46.6422 31.4406 47.8929 30.1788 48.7357 28.5942C49.5786 26.9803 50 25.1903 50 23.2242ZM0.0859375 33.7001H9.62479C9.76074 35.4901 10.4948 36.3851 11.8271 36.3851C12.3165 36.3851 12.7243 36.2677 13.0506 36.033C13.404 35.7689 13.5808 35.3727 13.5808 34.8445C13.5808 34.1109 13.2137 33.524 12.4796 33.0839C11.7455 32.6144 10.6036 32.0862 9.05383 31.4993C7.205 30.795 5.66884 30.1054 4.44535 29.4305C3.24905 28.7556 2.21588 27.7726 1.34584 26.4814C0.558333 25.3127 0.138366 23.8435 0.0859375 22.0738V33.7001ZM40.8238 23.2242C40.8238 25.1316 39.8858 26.0853 38.0098 26.0853H35.4405V20.3631H38.0098C39.8858 20.3631 40.8238 21.3168 40.8238 23.2242Z" fill="#050505"/>
</svg>
