<svg width="36" height="40" viewBox="0 0 36 40" fill="none" xmlns="http://www.w3.org/2000/svg">
<path fill-rule="evenodd" clip-rule="evenodd" d="M20.8807 0.816222C18.9957 -0.272074 16.6733 -0.272074 14.7883 0.816222L2.98437 7.72485C1.09939 8.81314 0 10.8244 0 13.001V15.2296C0.0357399 13.8769 0.376913 12.722 1.02352 11.765C1.72751 10.7308 2.67594 9.94987 3.86882 9.42222C5.08125 8.89458 6.44034 8.63076 7.9461 8.63076C10.4883 8.63076 12.5025 9.26393 13.9887 10.5303C15.4945 11.7966 16.2864 13.5801 16.3647 15.8806H9.35409C9.33453 15.2474 9.18787 14.7936 8.91409 14.5193C8.64032 14.2449 8.30788 14.1077 7.91677 14.1077C7.643 14.1077 7.41811 14.2132 7.24211 14.4243C7.06611 14.6142 6.97811 14.8886 6.97811 15.2474C6.97811 15.754 7.23233 16.1761 7.74077 16.5138C8.26877 16.8303 9.09987 17.2208 10.2341 17.6851C11.5443 18.2128 12.6198 18.7193 13.4607 19.2047C14.3211 19.6902 15.0642 20.3656 15.69 21.2309C16.3158 22.0962 16.6287 23.1832 16.6287 24.4917C16.6287 25.8636 16.3158 27.0983 15.69 28.1958C15.0642 29.2722 14.1549 30.1164 12.962 30.7285C11.7692 31.3406 10.3514 31.6466 8.70876 31.6466C6.22523 31.6466 4.17193 31.024 2.54883 29.7787C1.10326 28.6371 0.253648 27.0238 0 24.9389V26.9086C0 29.0852 1.09939 31.0965 2.98437 32.1848L14.7883 39.1838C16.6733 40.2721 18.9957 40.2721 20.8807 39.1838L32.8542 32.2478C34.7392 31.1595 35.9004 29.1483 35.9004 26.9717V16.7159C35.8987 18.1252 35.5956 19.4086 34.9911 20.5661C34.3849 21.7058 33.4854 22.6133 32.2925 23.2887C31.1192 23.9641 29.6916 24.3018 28.0099 24.3018H25.4286V31.425H18.9166V9.01066H28.0099C30.5521 9.01066 32.4978 9.70715 33.8471 11.1001C35.2134 12.4904 35.8978 14.3538 35.9004 16.6902V13.064C35.9004 10.8874 34.7392 8.87619 32.8542 7.7879L20.8807 0.816222ZM0 24.2385H6.86078C6.95856 25.5259 7.48655 26.1696 8.44476 26.1696C8.79676 26.1696 9.09009 26.0852 9.32475 25.9164C9.57897 25.7264 9.70608 25.4415 9.70608 25.0616C9.70608 24.5339 9.44209 24.1118 8.91409 23.7952C8.3861 23.4576 7.56477 23.0776 6.45012 22.6555C5.12036 22.149 4.01548 21.653 3.13549 21.1676C2.27506 20.6821 1.53196 19.9751 0.906186 19.0464C0.339733 18.2058 0.0376705 17.149 0 15.876V24.2385ZM29.3005 16.7037C29.3005 18.0756 28.6259 18.7615 27.2765 18.7615H25.4286V14.6459H27.2765C28.6259 14.6459 29.3005 15.3318 29.3005 16.7037Z" fill="#050505"/>
</svg>
